<?xml version="1.0" encoding="utf-8"?>
<!-- Generator: Adobe Illustrator 22.0.0, SVG Export Plug-In . SVG Version: 6.00 Build 0)  -->
<svg version="1.1" id="Layer_1" xmlns="http://www.w3.org/2000/svg" xmlns:xlink="http://www.w3.org/1999/xlink" x="0px" y="0px"
	 viewBox="0 0 512 452.9" style="enable-background:new 0 0 512 452.9;" xml:space="preserve">
<style type="text/css">
	.st0{fill:#FFCC7E;}
</style>
<path class="st0" d="M367.8,0.7C323.5,1.1,282,22.5,255.9,58.4C229.8,22.5,188.3,1.1,144,0.7C61.5,3.9-2.8,73.3,0.1,155.7
	c0,97,99.6,200.9,183.3,271c42,35.3,103.2,35.3,145.2,0c83.6-70.1,183.3-174,183.3-271C514.8,73.2,450.4,3.8,367.8,0.7z
	 M447.8,155.7c0,55.6-58.5,136.5-160.4,222c-18.2,15.3-44.8,15.3-63,0C122.5,292.3,64,211.4,64,155.7c-2.8-47.2,32.8-87.8,79.9-91.1
	c17.7,1.3,33.7,7.8,46.8,17.9c37.6,25.9,65.1,72.2,65.1,72.2c0,0,28.4-47.9,67-73.5c12.7-9.4,28.1-15.4,45-16.6
	C414.9,67.9,450.6,108.6,447.8,155.7z"/>
</svg>
